# xmcd
#
# Track frame offsets:
#	150
#	11605
#	24970
#	37983
#	50289
#	65969
#	80126
#	93466
#	102898
#	120842
#	131550
#
# Disc length: 1881 seconds
#
# Revision: 1
# Processed by: cddbd v1.5.1PL0 Copyright (c) Steve Scherf et al.
# Submitted via: CDex 1.50Beta5
#
DISCID=8607570b
DTITLE=CREEPS - GREEN APPLE,A
DYEAR=2001
DGENRE=Rock
TTITLE0=Not fine day
TTITLE1=新たなる一歩
TTITLE2=いつかの風
TTITLE3=Annoyance
TTITLE4=Summer story
TTITLE5=First step
TTITLE6=I don’t care what you say
TTITLE7=firm friendship,A
TTITLE8=今日も一人で
TTITLE9=Don’t forget it
TTITLE10=NA.NA.NA…
EXTD=
EXTT0=
EXTT1=
EXTT2=
EXTT3=
EXTT4=
EXTT5=
EXTT6=
EXTT7=
EXTT8=
EXTT9=
EXTT10=
PLAYORDER=
